<svg width="200" height="43" viewBox="0 0 200 43" fill="none" xmlns="http://www.w3.org/2000/svg">
<g clip-path="url(#clip0_192_2406)">
<path d="M27.379 26.6015L25.4021 5.1063C25.2765 3.67851 24.3508 2.439 23.0015 1.92123C19.8949 0.728795 16.804 0.101196 13.6973 0.101196C10.6064 0.101196 7.49981 0.728795 4.3932 1.92123C3.05955 2.439 2.11815 3.67851 1.99263 5.1063L0.015694 26.6015C-0.0627558 27.4488 0.047074 28.3118 0.376563 29.0963C0.517773 29.4257 0.674673 29.7239 0.862952 29.9121L11.4851 41.8365C12.0656 42.4327 12.8501 42.7779 13.6817 42.7779C14.5132 42.7779 15.2977 42.4327 15.8783 41.8365L26.5004 29.9121C26.6886 29.7239 26.8612 29.4101 26.9867 29.0963C27.3476 28.3118 27.4574 27.4488 27.379 26.6015ZM21.9189 31.183L16.1293 37.6787C16.0038 37.8042 15.8469 37.8826 15.6586 37.8826H11.7518C11.5792 37.8826 11.4066 37.8042 11.2811 37.6787L5.49149 31.183C5.44442 31.1203 5.49149 31.0418 5.56994 31.0575C8.47259 31.8891 11.2654 32.1715 13.6973 32.1558C16.1293 32.1715 18.9221 31.8891 21.8248 31.0575C21.9032 31.0418 21.966 31.1203 21.9189 31.183ZM24.7588 27.6528C21.0716 29.0492 17.3845 29.7395 13.6973 29.7395C10.0102 29.7395 6.32306 29.0492 2.63592 27.6528C2.60454 27.6371 2.58885 27.6057 2.58885 27.5743C2.62023 23.4949 5.7896 20.812 6.71531 20.1373C6.80945 20.0588 6.80945 19.9176 6.68393 19.8549C4.92665 19.0233 3.73422 17.3915 3.73422 15.5087C3.73422 12.7944 6.24461 11.1156 9.33553 11.1156C9.97882 11.1156 10.6064 11.1626 11.187 11.3195C11.2497 11.3352 11.3125 11.2725 11.2811 11.2097C10.7476 10.3781 9.16294 9.56225 8.62949 9.31121C8.58242 9.29552 8.59811 9.23276 8.64518 9.21707C11.7832 9.09155 13.1482 10.3311 13.5718 10.9116C13.6032 10.9587 13.6503 10.9743 13.6973 10.9743C13.7444 10.9743 13.7915 10.9587 13.8229 10.9116C14.2465 10.3311 15.6115 9.09155 18.7495 9.21707C18.7966 9.21707 18.8123 9.27983 18.7652 9.31121C18.2317 9.56225 16.6471 10.3781 16.1293 11.2254C16.0979 11.2881 16.1607 11.3509 16.2234 11.3352C16.804 11.1783 17.4159 11.1312 18.0748 11.1312C21.1658 11.1312 23.6762 12.7944 23.6762 15.5244C23.6762 17.4072 22.4837 19.039 20.7265 19.8706C20.6166 19.9176 20.6009 20.0745 20.6951 20.153C21.6051 20.8276 24.7902 23.5106 24.8215 27.59C24.8215 27.6057 24.7902 27.6371 24.7588 27.6528ZM20.2714 17.0464C20.1616 17.1091 20.0047 17.0934 19.9263 16.9836C19.4242 16.3246 18.6083 15.9481 17.761 16.0108C17.2433 16.0422 16.7726 16.2305 16.3803 16.5443C16.2705 16.6227 16.1293 16.607 16.0352 16.5129L15.1094 15.5244C14.9996 15.4146 15.0153 15.2263 15.1408 15.1322C15.8469 14.5517 16.7255 14.1908 17.6512 14.128C19.1731 14.0339 20.6166 14.7086 21.511 15.9324C21.5894 16.0579 21.5737 16.2305 21.4482 16.3089C21.4168 16.3246 20.2714 17.0464 20.2714 17.0464ZM14.4348 22.7261C14.5132 22.0985 14.8898 21.5337 15.5801 21.4552C16.0508 21.3925 16.5372 21.5964 16.7726 21.9416C16.9922 22.2397 16.9765 22.6163 16.8196 22.9458C16.7098 23.1654 16.6784 23.4636 16.6628 23.746C16.6314 24.2167 16.5686 24.7972 16.0038 24.86C15.5958 24.8913 15.235 24.7501 14.9369 24.4677C14.5289 24.0598 14.3406 23.3537 14.4348 22.7261ZM5.97788 16.3246C5.85236 16.2462 5.83667 16.0736 5.91512 15.9481C6.79376 14.7242 8.25293 14.0339 9.77485 14.1437C10.7006 14.2065 11.5792 14.5517 12.2852 15.1479C12.3951 15.242 12.4108 15.4303 12.3166 15.5401L11.3909 16.5286C11.2968 16.6227 11.1556 16.6384 11.0457 16.56C10.6535 16.2462 10.1828 16.0736 9.66502 16.0265C8.81777 15.9638 8.00189 16.3403 7.49981 16.9993C7.42136 17.1091 7.26446 17.1248 7.15463 17.062C7.13894 17.0464 5.97788 16.3246 5.97788 16.3246ZM12.4578 24.452C12.1754 24.7344 11.7989 24.8757 11.3909 24.8443C10.8261 24.7658 10.7633 24.1853 10.7319 23.7303C10.7006 23.4479 10.6849 23.1498 10.575 22.9301C10.4181 22.6006 10.4181 22.224 10.6221 21.9259C10.8732 21.5808 11.3439 21.3925 11.8146 21.4396C12.5206 21.518 12.8815 22.0828 12.9599 22.7104C13.0541 23.3537 12.8658 24.0598 12.4578 24.452Z" fill="#D410AA"/>
<path d="M40.9037 32.9403V16.6698C40.9037 16.6227 40.8724 16.5913 40.8253 16.5913H33.7805C33.6864 16.5913 33.6079 16.5129 33.6079 16.4187V11.3038C33.6079 11.2097 33.6864 11.1312 33.7805 11.1312H54.2402C54.3344 11.1312 54.3971 11.2097 54.3971 11.3038V16.4187C54.3971 16.5129 54.3187 16.5913 54.2402 16.5913H47.1954C47.1484 16.5913 47.117 16.6227 47.117 16.6698V32.9403C47.117 33.0344 47.0385 33.1129 46.9601 33.1129H41.0763C40.9822 33.1129 40.9037 33.0344 40.9037 32.9403Z" fill="#242424"/>
<path d="M57.3468 26.0367C57.2998 26.0367 57.2527 26.0838 57.2684 26.1308C57.692 28.2804 59.2296 28.955 60.7045 28.955C62.1794 28.955 62.9168 28.453 63.3404 27.7155C63.3718 27.6685 63.4189 27.6214 63.4816 27.6214H69.0673C69.1771 27.6214 69.2555 27.7312 69.2241 27.8254C68.2671 31.1046 64.878 33.6463 60.626 33.6463C55.0561 33.6463 51.5729 29.865 51.5729 24.7501C51.5729 19.6352 55.1189 15.9951 60.7673 15.9951C66.4156 15.9951 69.4909 19.949 69.4909 25.0482C69.4909 25.2836 69.4909 25.4405 69.4281 26.0053L57.3468 26.0367ZM57.4881 22.8516H63.7483C63.7954 22.8516 63.8425 22.8046 63.8268 22.7418C63.4345 21.1885 62.195 20.4197 60.6731 20.4197C59.1512 20.4197 57.8489 21.2356 57.4096 22.7418C57.3939 22.8046 57.441 22.8516 57.4881 22.8516Z" fill="#242424"/>
<path d="M89.8878 11.9629H95.1753C95.2695 11.9629 95.3322 12.0413 95.3322 12.1355V16.513C95.3322 16.5601 95.3636 16.5914 95.4107 16.5914H98.5644C98.6585 16.5914 98.7213 16.6699 98.7213 16.764V21.5495C98.7213 21.6436 98.6428 21.7221 98.5644 21.7221H95.5519C95.5048 21.7221 95.4734 21.7534 95.4734 21.8005V26.9311C95.4734 27.7627 95.7088 27.9823 96.6659 27.9823H98.7526C98.8468 27.9823 98.9095 28.0608 98.9095 28.1549V32.9404C98.9095 33.0345 98.8311 33.113 98.7526 33.113H93.0729C90.9861 33.113 89.7309 31.8891 89.7309 29.7082V21.8005C89.7309 21.7534 89.6995 21.7221 89.6525 21.7221H87.9109C87.8167 21.7221 87.754 21.6436 87.754 21.5495V16.764C87.754 16.6699 87.8324 16.5914 87.9109 16.5914H89.6525C89.6995 16.5914 89.7309 16.5601 89.7309 16.513V12.1198C89.7152 12.0257 89.7937 11.9629 89.8878 11.9629Z" fill="#242424"/>
<path d="M125.677 24.8444C125.677 19.6353 129.662 16.0266 134.793 16.0266C139.923 16.0266 143.94 19.6353 143.94 24.8444C143.94 30.0534 139.939 33.6778 134.793 33.6778C129.646 33.6778 125.677 30.0221 125.677 24.8444ZM138.009 24.8444C138.009 22.7262 136.613 21.3612 134.793 21.3612C132.972 21.3612 131.607 22.7262 131.607 24.8444C131.607 26.9625 132.972 28.3275 134.793 28.3275C136.613 28.3275 138.009 26.9311 138.009 24.8444Z" fill="#242424"/>
<path d="M80.3169 22.5065L78.795 22.3025C77.1476 22.0672 76.6141 21.8789 76.6141 21.2199C76.6141 20.6237 77.2731 20.1687 78.4969 20.1687C79.7207 20.1687 80.5836 20.6237 80.8974 21.5965C80.9131 21.6592 80.9916 21.722 81.0543 21.722H86.0908C86.2007 21.722 86.2791 21.6279 86.2477 21.5337C85.6358 18.5683 82.9528 16.0422 78.4812 16.0422C73.7899 16.0422 70.8716 18.4899 70.8716 21.6592C70.8716 24.8286 73.2251 26.3819 76.6925 26.8526L78.1831 27.0566C79.6736 27.2606 80.7562 27.4488 80.7562 28.3118C80.7562 29.0021 80.0816 29.3944 78.7636 29.3944C77.4457 29.3944 76.5356 28.9237 76.112 27.7626C76.0963 27.6999 76.0336 27.6528 75.9551 27.6528H70.8402C70.746 27.6528 70.6676 27.747 70.6833 27.8411C71.1383 31.2301 73.9782 33.6934 78.7322 33.6934C83.4863 33.6934 86.3889 31.387 86.3889 27.8411C86.3889 24.2952 83.6589 22.9301 80.3169 22.5065Z" fill="#242424"/>
<path d="M156.758 16.2933C154.672 16.3561 152.805 17.2975 151.644 18.8822C151.596 18.9449 151.487 18.9136 151.487 18.8351V16.7483C151.487 16.6542 151.408 16.5758 151.33 16.5758H145.917C145.823 16.5758 145.76 16.6542 145.76 16.7483V32.9404C145.76 33.0345 145.838 33.113 145.917 33.113H151.471C151.565 33.113 151.628 33.0345 151.628 32.9404V26.2565C151.628 23.0243 154.044 22.2555 156.052 22.2555C156.288 22.2555 156.523 22.2712 156.743 22.2869C156.837 22.3026 156.931 22.2241 156.931 22.13V16.4502C156.931 16.3718 156.853 16.2933 156.758 16.2933Z" fill="#242424"/>
<path d="M167.396 32.9403V11.2882C167.396 11.1941 167.475 11.1156 167.569 11.1156H173.123C173.217 11.1156 173.296 11.1941 173.296 11.2882V32.9403C173.296 33.0345 173.217 33.1129 173.123 33.1129H167.569C167.459 33.1129 167.396 33.0345 167.396 32.9403Z" fill="#242424"/>
<path d="M175.728 32.9403V11.2882C175.728 11.1941 175.806 11.1156 175.9 11.1156H181.454C181.549 11.1156 181.627 11.1941 181.627 11.2882V32.9403C181.627 33.0345 181.549 33.1129 181.454 33.1129H175.9C175.806 33.1129 175.728 33.0345 175.728 32.9403Z" fill="#242424"/>
<path d="M194.728 32.9403V31.842C194.728 31.7636 194.634 31.7322 194.587 31.7793C193.426 32.956 191.684 33.6621 189.629 33.6621C186.036 33.6621 183.557 31.7636 183.557 28.5315C183.557 24.9071 186.915 23.291 192.516 23.1027C193.504 23.0713 193.991 23.0713 194.524 23.0713C194.571 23.0713 194.603 23.04 194.603 22.9929V22.5379C194.603 21.2984 193.74 20.5453 192.296 20.5453C190.853 20.5453 190.084 21.1886 189.817 22.2868C189.802 22.3496 189.723 22.4124 189.66 22.4124H184.216C184.122 22.4124 184.043 22.3182 184.059 22.2241C184.577 18.6468 187.621 16.0109 192.296 16.0109C196.595 16.0109 199.953 18.0506 199.953 22.4751V32.956C199.953 33.0502 199.875 33.1286 199.78 33.1286H194.854C194.807 33.1129 194.728 33.0345 194.728 32.9403ZM194.634 26.6487V26.1623C194.634 26.1152 194.603 26.0838 194.556 26.0838C194.305 26.0838 193.85 26.1152 193.41 26.1466C190.57 26.3506 189.551 26.9782 189.551 28.0451C189.551 28.908 190.257 29.4415 191.449 29.4415C193.504 29.4415 194.634 28.0451 194.634 26.6487Z" fill="#242424"/>
<path d="M159.049 32.9403V16.7483C159.049 16.6541 159.128 16.5757 159.206 16.5757H164.76C164.854 16.5757 164.933 16.6541 164.933 16.7483V32.9403C164.933 33.0345 164.854 33.1129 164.76 33.1129H159.206C159.128 33.1129 159.049 33.0345 159.049 32.9403Z" fill="#242424"/>
<path d="M161.999 15.5088C163.931 15.5088 165.498 14.0968 165.498 12.3551C165.498 10.6134 163.931 9.20142 161.999 9.20142C160.067 9.20142 158.5 10.6134 158.5 12.3551C158.5 14.0968 160.067 15.5088 161.999 15.5088Z" fill="#242424"/>
<path d="M114.223 21.314V25.6602C114.223 25.7543 114.301 25.8327 114.38 25.8327H117.031C117.063 25.8327 117.079 25.8641 117.063 25.8955C116.294 27.2135 114.584 28.0293 112.56 28.0293C110.85 28.0293 109.39 27.4645 108.355 26.3819C107.319 25.2993 106.77 23.7931 106.77 22.0044C106.77 20.2157 107.319 18.7095 108.355 17.6269C109.359 16.5757 110.787 15.9951 112.372 15.9951C114.725 15.9951 116.624 17.2817 117.471 19.4626C117.502 19.5254 117.549 19.5725 117.628 19.5725H123.653C123.762 19.5725 123.841 19.4783 123.81 19.3685C123.229 16.7639 121.895 14.536 119.918 12.9199C117.879 11.194 115.259 10.2997 112.372 10.2997C109.124 10.2997 106.127 11.4607 103.962 13.5789C101.749 15.7284 100.541 18.7095 100.541 21.9887C100.541 25.2679 101.749 28.3275 103.962 30.477C106.08 32.5481 108.983 33.6777 112.105 33.6777C115.039 33.6777 117.471 32.705 119.15 30.8692C119.181 30.8378 119.228 30.8535 119.228 30.9006V32.956C119.228 33.0501 119.307 33.1286 119.385 33.1286H123.731C123.825 33.1286 123.888 33.0501 123.888 32.956V21.3297C123.888 21.2356 123.81 21.1571 123.731 21.1571H114.38C114.286 21.1414 114.223 21.2199 114.223 21.314Z" fill="#242424"/>
</g>
<defs>
<clipPath id="clip0_192_2406">
<rect width="200" height="42.6767" fill="white" transform="translate(0 0.101196)"/>
</clipPath>
</defs>
</svg>
