<svg width="31" height="49" viewBox="0 0 31 49" fill="none" xmlns="http://www.w3.org/2000/svg">
<g clip-path="url(#clip0_192_2404)">
<path d="M30.7997 29.9107L28.5714 5.72512C28.432 4.11663 27.3858 2.72507 25.8774 2.14481C22.3824 0.804414 18.9019 0.10229 15.4122 0.101196C11.9226 0.10229 8.44208 0.804414 4.9471 2.14483C3.43866 2.72508 2.39246 4.11664 2.25308 5.72514L0.0248583 29.9107C-0.0580652 30.8613 0.0636642 31.8261 0.4324 32.7079C0.584111 33.0713 0.767605 33.4116 0.986376 33.6321L12.9374 47.0433C13.5955 47.7064 14.4755 48.1012 15.4123 48.1012C16.3491 48.1012 17.229 47.7064 17.8871 47.0433L29.8382 33.6321C30.0569 33.4116 30.2404 33.0713 30.3921 32.7079C30.7609 31.8261 30.8826 30.8613 30.7997 29.9107ZM24.6459 35.0625L18.1323 42.3694C17.9982 42.5194 17.8059 42.6058 17.6048 42.6058H13.2197C13.0186 42.6058 12.8263 42.5194 12.6922 42.3694L6.17857 35.0625C6.12035 34.9972 6.18386 34.8967 6.26855 34.9213C9.53235 35.8599 12.6687 36.1693 15.4123 36.1602C18.1558 36.1693 21.2922 35.8599 24.556 34.9213C24.6407 34.8967 24.7042 34.9972 24.6459 35.0625ZM27.8516 31.0888C23.699 32.6571 19.5648 33.4402 15.4122 33.4381C11.2597 33.4402 7.12545 32.6571 2.97291 31.0888C2.93761 31.0747 2.91467 31.0412 2.91467 31.0042C2.9482 26.4238 6.51552 23.3974 7.54759 22.639C7.66051 22.5561 7.64639 22.3832 7.51937 22.3233C5.54163 21.3903 4.19553 19.5525 4.19553 17.4431C4.19553 14.3848 7.01481 12.5097 10.4921 12.5097C11.219 12.5097 11.9177 12.5577 12.5669 12.7429C12.6445 12.764 12.7116 12.6829 12.671 12.6141C12.0958 11.6547 10.2998 10.7428 9.70528 10.4606C9.65588 10.4377 9.67176 10.3636 9.72645 10.3601C13.2497 10.2172 14.7899 11.6053 15.268 12.2614C15.3032 12.3095 15.3581 12.3342 15.4122 12.3354C15.4664 12.3342 15.5213 12.3095 15.5565 12.2614C16.0346 11.6053 17.5748 10.2172 21.098 10.3601C21.1527 10.3636 21.1686 10.4377 21.1192 10.4606C20.5246 10.7428 18.7286 11.6547 18.1535 12.6141C18.1129 12.6829 18.1799 12.764 18.2576 12.7429C18.9068 12.5577 19.6054 12.5097 20.3323 12.5097C23.8097 12.5097 26.6289 14.3849 26.6289 17.4431C26.6289 19.5525 25.2828 21.3903 23.3051 22.3233C23.1781 22.3832 23.1639 22.5561 23.2769 22.639C24.3089 23.3973 27.8763 26.4238 27.9098 31.0042C27.9098 31.0412 27.8869 31.0747 27.8516 31.0888ZM22.7925 19.1645C22.6673 19.2438 22.4996 19.2174 22.4079 19.0975C21.8345 18.3496 20.9224 17.9299 19.968 17.9952C19.391 18.0322 18.8582 18.2368 18.4119 18.5878C18.2955 18.6795 18.1243 18.6636 18.022 18.5525L16.9723 17.4396C16.8572 17.3176 16.8704 17.1112 17.0022 17.0057C17.7997 16.3479 18.7912 15.9528 19.8268 15.8822C21.5364 15.7711 23.1701 16.5419 24.1651 17.9175C24.2616 18.0526 24.2315 18.2468 24.0945 18.3426C24.0928 18.3426 22.7925 19.1645 22.7925 19.1645ZM16.228 25.5473C16.3229 24.8347 16.7336 24.2097 17.5227 24.1127C18.0537 24.0474 18.5936 24.2644 18.8706 24.6524C19.1137 24.9877 19.1085 25.4134 18.9288 25.7759C18.8053 26.0281 18.7771 26.3579 18.7489 26.6753C18.7048 27.1992 18.6465 27.85 18.0043 27.9329C17.5504 27.9754 17.1349 27.8073 16.8099 27.4902C16.3484 27.0396 16.1343 26.2508 16.228 25.5473ZM6.72998 18.3426C6.59302 18.2468 6.56288 18.0526 6.65941 17.9176C7.65444 16.5419 9.28815 15.7711 10.9977 15.8823C12.0333 15.9528 13.0248 16.3479 13.8223 17.0057C13.9541 17.1112 13.9673 17.3176 13.8523 17.4396L12.8025 18.5525C12.7002 18.6636 12.5291 18.6795 12.4126 18.5878C11.9663 18.2368 11.4335 18.0322 10.8566 17.9952C9.90211 17.9299 8.98999 18.3497 8.41662 19.0975C8.32487 19.2174 8.15728 19.2439 8.03202 19.1645C8.03202 19.1645 6.73175 18.3426 6.72998 18.3426ZM14.0146 27.4902C13.6897 27.8073 13.2742 27.9754 12.8202 27.9329C12.178 27.85 12.1198 27.1992 12.0757 26.6754C12.0474 26.3579 12.0192 26.0281 11.8957 25.7759C11.716 25.4134 11.7108 24.9878 11.9539 24.6524C12.2309 24.2644 12.7708 24.0474 13.3018 24.1127C14.0909 24.2097 14.5016 24.8347 14.5965 25.5473C14.6902 26.2508 14.4762 27.0396 14.0146 27.4902Z" fill="#D410AA"/>
</g>
<defs>
<clipPath id="clip0_192_2404">
<rect width="30.8245" height="48" fill="white" transform="translate(0 0.101196)"/>
</clipPath>
</defs>
</svg>
